<svg width="23" height="21" viewBox="0 0 23 21" fill="none" xmlns="http://www.w3.org/2000/svg">
<path d="M15.6709 8.37179L18.7992 5.24354L21.9274 8.37179M8.89304 8.37179C9.37232 8.37179 9.8469 8.27739 10.2897 8.09398C10.7325 7.91057 11.1348 7.64174 11.4737 7.30284C11.8126 6.96394 12.0814 6.56161 12.2649 6.11882C12.4483 5.67602 12.5427 5.20144 12.5427 4.72217C12.5427 4.24289 12.4483 3.76831 12.2649 3.32551C12.0814 2.88272 11.8126 2.48039 11.4737 2.14149C11.1348 1.80259 10.7325 1.53376 10.2897 1.35035C9.8469 1.16694 9.37232 1.07254 8.89304 1.07254C7.9251 1.07254 6.9968 1.45705 6.31236 2.14149C5.62793 2.82593 5.24341 3.75422 5.24341 4.72217C5.24341 5.69011 5.62793 6.6184 6.31236 7.30284C6.9968 7.98728 7.9251 8.37179 8.89304 8.37179ZM1.07241 19.2164V19.842H16.7137V19.2164C16.7137 16.8806 16.7137 15.7128 16.259 14.8202C15.8591 14.0354 15.2211 13.3973 14.4363 12.9974C13.5437 12.5428 12.3758 12.5428 10.0401 12.5428H7.74601C5.41025 12.5428 4.24237 12.5428 3.34978 12.9974C2.56499 13.3973 1.92693 14.0354 1.52705 14.8202C1.07241 15.7128 1.07241 16.8806 1.07241 19.2164Z" stroke="white" stroke-width="2.05396" stroke-linecap="round" stroke-linejoin="round"/>
</svg>
