<svg width="17" height="17" viewBox="0 0 17 17" fill="none" xmlns="http://www.w3.org/2000/svg">
<path d="M4.25016 2.83317H7.79183V8.49984L6.021 7.43734L4.25016 8.49984M12.7502 1.4165H4.25016C3.87444 1.4165 3.5141 1.56576 3.24843 1.83144C2.98275 2.09711 2.8335 2.45745 2.8335 2.83317V14.1665C2.8335 14.5422 2.98275 14.9026 3.24843 15.1682C3.5141 15.4339 3.87444 15.5832 4.25016 15.5832H12.7502C13.1259 15.5832 13.4862 15.4339 13.7519 15.1682C14.0176 14.9026 14.1668 14.5422 14.1668 14.1665V2.83317C14.1668 2.45745 14.0176 2.09711 13.7519 1.83144C13.4862 1.56576 13.1259 1.4165 12.7502 1.4165Z" fill="white"/>
</svg>
