<svg width="25" height="25" viewBox="0 0 25 25" fill="none" xmlns="http://www.w3.org/2000/svg">
<path d="M13.4374 17.525H14.2499C15.0624 17.525 15.7374 16.8 15.7374 15.925C15.7374 14.8375 15.3499 14.625 14.7124 14.4L13.4499 13.9625V17.525H13.4374Z" fill="white"/>
<path d="M12.4625 2.0979e-05C5.56256 0.0250209 -0.0249163 5.6375 8.35661e-05 12.5375C0.0250835 19.4374 5.63756 25.0249 12.5375 24.9999C19.4375 24.9749 25.025 19.3624 25 12.4625C24.975 5.5625 19.3625 -0.012479 12.4625 2.0979e-05ZM15.325 12.625C16.3 12.9625 17.6125 13.6875 17.6125 15.925C17.6125 17.8499 16.1 19.3999 14.25 19.3999H13.4375V20.1249C13.4375 20.6374 13.0125 21.0624 12.5 21.0624C11.9875 21.0624 11.5625 20.6374 11.5625 20.1249V19.3999H11.1125C9.06254 19.3999 7.40005 17.6749 7.40005 15.55C7.40005 15.0375 7.82505 14.6125 8.33755 14.6125C8.85004 14.6125 9.27504 15.0375 9.27504 15.55C9.27504 16.6374 10.1 17.5249 11.1125 17.5249H11.5625V13.3L9.67504 12.625C8.70004 12.2875 7.38755 11.5625 7.38755 9.32498C7.38755 7.39999 8.90004 5.84999 10.75 5.84999H11.5625V5.125C11.5625 4.6125 11.9875 4.1875 12.5 4.1875C13.0125 4.1875 13.4375 4.6125 13.4375 5.125V5.84999H13.8875C15.9375 5.84999 17.6 7.57499 17.6 9.69998C17.6 10.2125 17.175 10.6375 16.6625 10.6375C16.15 10.6375 15.725 10.2125 15.725 9.69998C15.725 8.61248 14.9 7.72499 13.8875 7.72499H13.4375V11.95L15.325 12.625Z" fill="white"/>
<path d="M9.27479 9.33752C9.27479 10.425 9.66229 10.6375 10.2998 10.8625L11.5623 11.3V7.72503H10.7498C9.93729 7.72503 9.27479 8.45003 9.27479 9.33752Z" fill="white"/>
</svg>
