<svg width="25" height="25" viewBox="0 0 25 25" fill="none" xmlns="http://www.w3.org/2000/svg">
<path d="M8.78185 0C5.51363 0 2.85665 2.65699 2.85665 5.9252C2.85665 9.13105 5.36395 11.7257 8.63216 11.8379C8.73195 11.8255 8.83175 11.8255 8.90659 11.8379C8.93154 11.8379 8.94401 11.8379 8.96896 11.8379C8.98144 11.8379 8.98144 11.8379 8.99391 11.8379C12.1873 11.7257 14.6946 9.13105 14.7071 5.9252C14.7071 2.65699 12.0501 0 8.78185 0Z" fill="white"/>
<path d="M15.1186 15.1561C11.6383 12.8359 5.96262 12.8359 2.4574 15.1561C0.873188 16.2164 0 17.6509 0 19.1852C0 20.7195 0.873188 22.1416 2.44493 23.1894C4.1913 24.3619 6.48654 24.9482 8.78177 24.9482C11.077 24.9482 13.3722 24.3619 15.1186 23.1894C16.6904 22.1291 17.5635 20.707 17.5635 19.1602C17.5511 17.6259 16.6904 16.2039 15.1186 15.1561Z" fill="white"/>
<path d="M22.4907 6.66115C22.6902 9.08113 20.9688 11.2017 18.5863 11.4886C18.5738 11.4886 18.5738 11.4886 18.5613 11.4886H18.5239C18.449 11.4886 18.3742 11.4886 18.3118 11.5136C17.1018 11.576 15.9916 11.1893 15.1559 10.4782C16.4407 9.33061 17.1767 7.60918 17.027 5.73807C16.9397 4.72767 16.5904 3.80458 16.0665 3.01871C16.5405 2.78171 17.0894 2.63202 17.6507 2.58212C20.0956 2.37006 22.2786 4.19128 22.4907 6.66115Z" fill="white"/>
<path d="M24.9862 18.1997C24.8864 19.4097 24.113 20.4576 22.8157 21.1686C21.5683 21.8547 19.9965 22.179 18.4373 22.1416C19.3354 21.3308 19.8593 20.3203 19.9591 19.2476C20.0839 17.7008 19.3479 16.2164 17.876 15.0313C17.0402 14.3702 16.0672 13.8463 15.0069 13.4596C17.7637 12.6612 21.2315 13.1976 23.3646 14.9191C24.5122 15.8421 25.0985 17.0022 24.9862 18.1997Z" fill="white"/>
</svg>
