<svg width="26" height="26" viewBox="0 0 26 26" fill="none" xmlns="http://www.w3.org/2000/svg">
<path d="M8.66669 20.5835C6.55421 20.5835 4.76239 19.8479 3.29123 18.3768C1.82008 16.9056 1.08414 15.1134 1.08342 13.0002C1.08342 10.8877 1.81935 9.09593 3.29123 7.62477C4.76311 6.15362 6.55493 5.41768 8.66669 5.41695C9.15419 5.41695 9.62832 5.46209 10.0891 5.55237C10.5499 5.64265 10.9966 5.76903 11.4292 5.93153C11.1222 6.18431 10.8333 6.45984 10.5625 6.75811C10.2917 7.05639 10.0389 7.36766 9.80418 7.69194C9.62363 7.65583 9.43838 7.62874 9.24844 7.61069C9.05849 7.59263 8.86458 7.5836 8.66669 7.5836C7.16809 7.5836 5.89085 8.11191 4.83497 9.16851C3.77909 10.2251 3.25079 11.5024 3.25007 13.0002C3.25007 14.4988 3.77837 15.7764 4.83497 16.833C5.89157 17.8896 7.16881 18.4176 8.66669 18.4169C8.8653 18.4169 9.05958 18.4078 9.24952 18.3898C9.43946 18.3717 9.62435 18.3446 9.80418 18.3085C10.0389 18.6335 10.2917 18.9452 10.5625 19.2434C10.8333 19.5417 11.1222 19.8169 11.4292 20.0689C10.9958 20.2314 10.5488 20.3578 10.088 20.4481C9.62724 20.5384 9.15347 20.5835 8.66669 20.5835ZM17.3333 20.5835C16.8458 20.5835 16.3717 20.5384 15.9109 20.4481C15.4501 20.3578 15.0034 20.2314 14.5708 20.0689C14.8778 19.8161 15.1666 19.541 15.4375 19.2434C15.7083 18.9459 15.9611 18.6342 16.1958 18.3085C16.3944 18.3446 16.584 18.3717 16.7645 18.3898C16.9451 18.4078 17.1347 18.4169 17.3333 18.4169C18.8319 18.4169 20.1095 17.8886 21.1661 16.832C22.2227 15.7753 22.7506 14.4981 22.7499 13.0002C22.7499 11.5016 22.2216 10.2244 21.165 9.16851C20.1084 8.11263 18.8312 7.58433 17.3333 7.5836C17.1347 7.5836 16.9451 7.59263 16.7645 7.61069C16.584 7.62874 16.3944 7.65583 16.1958 7.69194C15.9611 7.36694 15.7083 7.05566 15.4375 6.75811C15.1666 6.46056 14.8778 6.18503 14.5708 5.93153C15.0041 5.76903 15.4512 5.64265 15.912 5.55237C16.3727 5.46209 16.8465 5.41695 17.3333 5.41695C19.4458 5.41695 21.238 6.15289 22.7098 7.62477C24.1817 9.09665 24.9173 10.8885 24.9166 13.0002C24.9166 15.1127 24.181 16.9049 22.7098 18.3768C21.2387 19.8486 19.4465 20.5842 17.3333 20.5835ZM13 18.9044C12.8736 18.9044 12.7472 18.882 12.6208 18.8372C12.4944 18.7924 12.3861 18.7245 12.2958 18.6335C11.4653 17.9474 10.8333 17.1078 10.4 16.1148C9.96668 15.1217 9.75002 14.0836 9.75002 13.0002C9.75002 11.9169 9.96668 10.8787 10.4 9.88567C10.8333 8.89262 11.4653 8.05305 12.2958 7.36694C12.3861 7.27666 12.4944 7.20914 12.6208 7.16436C12.7472 7.11958 12.8736 7.09683 13 7.09611C13.1264 7.09611 13.2528 7.11886 13.3792 7.16436C13.5055 7.20986 13.6139 7.27738 13.7042 7.36694C14.5347 8.05305 15.1666 8.89262 15.6 9.88567C16.0333 10.8787 16.25 11.9169 16.25 13.0002C16.25 14.0836 16.0333 15.1217 15.6 16.1148C15.1666 17.1078 14.5347 17.9474 13.7042 18.6335C13.6139 18.7238 13.5055 18.7917 13.3792 18.8372C13.2528 18.8827 13.1264 18.9051 13 18.9044Z" fill="white"/>
</svg>
