<svg width="50" height="50" viewBox="0 0 50 50" fill="none" xmlns="http://www.w3.org/2000/svg">
<path d="M12.5002 45.8333H37.5002C37.871 45.8333 38.2252 45.7708 38.5668 45.6791L30.7356 37.8479C29.0368 38.9795 27.0413 39.5833 25.0002 39.5833C19.2564 39.5833 14.5835 34.9104 14.5835 29.1666C14.5835 23.4229 19.2564 18.75 25.0002 18.75C30.7439 18.75 35.4168 23.4229 35.4168 29.1666C35.417 31.2078 34.8132 33.2034 33.6814 34.902L41.5127 42.7333C41.6043 42.3916 41.6668 42.0375 41.6668 41.6666V16.6666L29.1668 4.16663H12.5002C11.3951 4.16663 10.3353 4.60561 9.55388 5.38701C8.77248 6.16842 8.3335 7.22822 8.3335 8.33329V41.6666C8.3335 42.7717 8.77248 43.8315 9.55388 44.6129C10.3353 45.3943 11.3951 45.8333 12.5002 45.8333Z" fill="#1DC270"/>
<path d="M25 35.4166C28.4518 35.4166 31.25 32.6184 31.25 29.1666C31.25 25.7148 28.4518 22.9166 25 22.9166C21.5482 22.9166 18.75 25.7148 18.75 29.1666C18.75 32.6184 21.5482 35.4166 25 35.4166Z" fill="#1DC270"/>
</svg>
