<svg width="25" height="23" viewBox="0 0 25 23" fill="none" xmlns="http://www.w3.org/2000/svg">
<path d="M25 2.71116V17.5663C25 18.7782 24.013 19.8902 22.8011 20.0401L22.4138 20.0901C20.3648 20.3649 17.4787 21.2145 15.1548 22.189C14.3427 22.5264 13.4432 21.9142 13.4432 21.0271V3.6482C13.4432 3.18593 13.7056 2.76114 14.1178 2.53625C16.4042 1.29936 19.865 0.199901 22.2139 0H22.2888C23.7881 0 25 1.2119 25 2.71116Z" fill="white"/>
<path d="M10.8946 2.53625C8.60825 1.29936 5.14746 0.199901 2.79862 0H2.71116C1.2119 0 0 1.2119 0 2.71116V17.5663C0 18.7782 0.987013 19.8902 2.19891 20.0401L2.58622 20.0901C4.63521 20.3649 7.52129 21.2145 9.84514 22.189C10.6572 22.5264 11.5568 21.9142 11.5568 21.0271V3.6482C11.5568 3.17343 11.3069 2.76114 10.8946 2.53625ZM3.76064 6.32188H6.57176C7.084 6.32188 7.50879 6.74667 7.50879 7.25891C7.50879 7.78366 7.084 8.19595 6.57176 8.19595H3.76064C3.2484 8.19595 2.82361 7.78366 2.82361 7.25891C2.82361 6.74667 3.2484 6.32188 3.76064 6.32188ZM7.50879 11.9441H3.76064C3.2484 11.9441 2.82361 11.5318 2.82361 11.0071C2.82361 10.4948 3.2484 10.07 3.76064 10.07H7.50879C8.02104 10.07 8.44583 10.4948 8.44583 11.0071C8.44583 11.5318 8.02104 11.9441 7.50879 11.9441Z" fill="white"/>
</svg>
