<svg width="45" height="45" viewBox="0 0 45 45" fill="none" xmlns="http://www.w3.org/2000/svg">
<path d="M40.7812 36.5625C40.7812 36.9355 40.6331 37.2931 40.3694 37.5569C40.1056 37.8206 39.748 37.9688 39.375 37.9688H5.625C5.25204 37.9688 4.89435 37.8206 4.63063 37.5569C4.36691 37.2931 4.21875 36.9355 4.21875 36.5625C4.21875 36.1895 4.36691 35.8319 4.63063 35.5681C4.89435 35.3044 5.25204 35.1562 5.625 35.1562H39.375C39.748 35.1562 40.1056 35.3044 40.3694 35.5681C40.6331 35.8319 40.7812 36.1895 40.7812 36.5625ZM40.7812 9.84375V29.5312C40.7812 30.2772 40.4849 30.9925 39.9575 31.52C39.43 32.0474 38.7147 32.3438 37.9688 32.3438H7.03125C6.28533 32.3438 5.56996 32.0474 5.04251 31.52C4.51507 30.9925 4.21875 30.2772 4.21875 29.5312V9.84375C4.21875 9.09783 4.51507 8.38246 5.04251 7.85501C5.56996 7.32757 6.28533 7.03125 7.03125 7.03125H37.9688C38.7147 7.03125 39.43 7.32757 39.9575 7.85501C40.4849 8.38246 40.7812 9.09783 40.7812 9.84375ZM28.8281 19.6875C28.8281 19.4508 28.7682 19.218 28.6542 19.0106C28.5402 18.8032 28.3757 18.6279 28.176 18.501L20.4416 13.5791C20.229 13.444 19.984 13.3685 19.7323 13.3605C19.4806 13.3525 19.2313 13.4122 19.0105 13.5335C18.7898 13.6547 18.6056 13.833 18.4773 14.0498C18.349 14.2665 18.2813 14.5138 18.2812 14.7656V24.6094C18.2813 24.8612 18.349 25.1085 18.4773 25.3252C18.6056 25.542 18.7898 25.7203 19.0105 25.8415C19.2313 25.9628 19.4806 26.0225 19.7323 26.0145C19.984 26.0065 20.229 25.931 20.4416 25.7959L28.176 20.874C28.3757 20.7471 28.5402 20.5718 28.6542 20.3644C28.7682 20.157 28.8281 19.9242 28.8281 19.6875Z" fill="white"/>
</svg>
