<svg width="25" height="25" viewBox="0 0 25 25" fill="none" xmlns="http://www.w3.org/2000/svg">
<path d="M16.6667 11.4582V8.33319H13.5417V6.24987H16.6667V3.12488H18.75V6.24987H21.875V8.33319H18.75V11.4582H16.6667ZM20.7813 21.8748C18.6111 21.8748 16.4629 21.4061 14.3365 20.4686C12.2101 19.5311 10.2785 18.1943 8.54171 16.4582C6.8056 14.7221 5.4688 12.795 4.53131 10.6769C3.59381 8.55889 3.12506 6.40612 3.12506 4.21862V3.12488H9.27088L10.2344 8.35924L7.26567 11.354C7.64762 12.0311 8.07296 12.6735 8.54171 13.2811C9.01046 13.8887 9.51393 14.453 10.0521 14.9738C10.5556 15.4773 11.107 15.9592 11.7063 16.4196C12.3056 16.88 12.9521 17.3096 13.6459 17.7082L16.6667 14.6873L21.875 15.755V21.8748H20.7813Z" fill="white"/>
</svg>
