<svg width="170" height="160" viewBox="0 0 170 160" fill="none" xmlns="http://www.w3.org/2000/svg">
<path d="M166.746 79.9999C166.746 122.669 130.114 157.496 84.6249 157.496C39.136 157.496 2.50336 122.669 2.50336 79.9999C2.50336 37.3304 39.136 2.50336 84.6249 2.50336C130.114 2.50336 166.746 37.3304 166.746 79.9999Z" fill="#F9F8F4" stroke="#334456" stroke-width="5"/>
<path d="M36.8957 71.821L20.3183 71.1145L21.0837 68.7838L33.9536 69.4361L23.0005 62.9471L23.7531 60.6555L36.6537 61.1451L25.6634 54.8384L26.4289 52.5076L40.5234 60.7744L39.6229 63.5165L27.6013 63.0479L37.7962 69.079L36.8957 71.821Z" fill="#334456"/>
<path d="M36.3579 47.8605C36.7872 47.3104 37.2368 46.9186 37.7065 46.6851C38.1849 46.4406 38.6322 46.2934 39.0486 46.2435C39.465 46.1935 39.7992 46.1798 40.0513 46.2023L40.1286 46.1032L38.7479 45.1434L40.2161 43.262L49.4789 49.7015L48.0107 51.5829L46.63 50.623L46.5527 50.722C46.6502 50.9426 46.7355 51.2479 46.8084 51.638C46.8814 52.0282 46.8651 52.4751 46.7596 52.9788C46.6627 53.4714 46.3996 53.9928 45.9703 54.543C45.4551 55.2031 44.8704 55.6876 44.216 55.9964C43.5586 56.2861 42.8739 56.438 42.162 56.4522C41.4383 56.4582 40.7267 56.3453 40.0269 56.1135C39.3358 55.8706 38.6932 55.5426 38.0989 55.1295C37.5047 54.7164 36.9823 54.2344 36.5315 53.6835C36.0894 53.1216 35.7699 52.5176 35.5731 51.8716C35.3646 51.2176 35.3153 50.5553 35.4251 49.8849C35.5318 49.1954 35.8428 48.5206 36.3579 47.8605ZM38.3402 48.6021C37.9195 49.1413 37.7248 49.7017 37.756 50.2835C37.7756 50.8571 37.9513 51.4035 38.283 51.9227C38.6234 52.4308 39.0557 52.8671 39.58 53.2316C40.1043 53.5961 40.674 53.8564 41.2891 54.0125C41.9128 54.1575 42.5236 54.1579 43.1215 54.0135C43.7078 53.861 44.2112 53.5152 44.632 52.9761C45.0527 52.437 45.2489 51.8861 45.2207 51.3234C45.1895 50.7417 45.0037 50.1967 44.6634 49.6886C44.3316 49.1694 43.9036 48.7276 43.3793 48.3631C42.855 47.9986 42.281 47.7439 41.6573 47.5988C41.0422 47.4427 40.4416 47.4409 39.8553 47.5934C39.266 47.7268 38.7609 48.063 38.3402 48.6021Z" fill="#334456"/>
<path d="M56.1915 45.1194C55.4814 45.6592 54.8079 45.9695 54.1707 46.0504C53.5336 46.1312 52.9467 46.0423 52.41 45.7836C51.8755 45.5057 51.4039 45.1274 50.9953 44.6485L47.1811 40.1793L45.6089 41.3746L44.3557 39.9062L45.9279 38.7109L44.1298 36.604L46.057 35.1388L47.8551 37.2457L49.9514 35.652L51.2046 37.1204L49.1083 38.7141L52.8952 43.1514C53.5763 43.9495 54.3846 43.9929 55.32 43.2817C55.5567 43.1018 55.7628 42.9187 55.9384 42.7326C56.1141 42.5464 56.2019 42.4534 56.2019 42.4534L57.4687 43.9378C57.4687 43.9378 57.346 44.0662 57.1006 44.3229C56.8664 44.5711 56.5634 44.8366 56.1915 45.1194Z" fill="#334456"/>
<path d="M66.3535 39.849C65.4723 40.2301 64.6336 40.4201 63.8373 40.4188C63.0349 40.405 62.2991 40.2497 61.6297 39.9529C60.9544 39.6436 60.3571 39.2329 59.8379 38.7208C59.3318 38.2029 58.9249 37.6272 58.6171 36.9935C58.3094 36.3598 58.1129 35.693 58.0277 34.9931C57.9556 34.2876 58.0188 33.5986 58.2175 32.9263C58.4101 32.2415 58.7658 31.614 59.2846 31.0437C59.7973 30.4611 60.4943 29.9791 61.3754 29.598C62.2433 29.2225 63.0204 29.0367 63.7066 29.0405C64.3999 29.0263 65.005 29.1254 65.5219 29.3378C66.0388 29.5502 66.4703 29.7996 66.8162 30.086C67.1622 30.3724 67.4152 30.6313 67.5753 30.8627C67.7486 31.0885 67.8353 31.2013 67.8353 31.2013L65.7048 32.123C65.7048 32.123 65.6267 32.044 65.4704 31.8861C65.3273 31.7225 65.1099 31.5534 64.8183 31.3788C64.5266 31.2043 64.1646 31.0978 63.7321 31.0593C63.3128 31.0152 62.8204 31.1154 62.255 31.3601C61.5842 31.6502 61.1038 32.0535 60.8135 32.57C60.5172 33.0741 60.3744 33.6321 60.3851 34.2439C60.4089 34.8501 60.5626 35.4452 60.8462 36.0292C61.1298 36.6132 61.5071 37.1115 61.9781 37.5242C62.4622 37.9313 63.0063 38.1996 63.6103 38.3292C64.2083 38.4464 64.8426 38.36 65.5133 38.0698C66.0788 37.8252 66.4807 37.5385 66.719 37.2099C66.9704 36.8756 67.1212 36.5472 67.1715 36.2248C67.2218 35.9023 67.228 35.6365 67.1901 35.4273C67.1653 35.2125 67.153 35.1051 67.153 35.1051L69.2834 34.1834C69.2834 34.1834 69.3175 34.3191 69.3855 34.5903C69.4668 34.8559 69.5094 35.2059 69.5134 35.6402C69.5174 36.0745 69.436 36.5457 69.269 37.054C69.1021 37.5623 68.7896 38.0658 68.3317 38.5646C67.8808 39.0454 67.2214 39.4735 66.3535 39.849Z" fill="#334456"/>
<path d="M73.6704 37.38L71.0011 21.9993L73.4418 21.6219L74.52 27.8349L74.6485 27.8151C74.7156 27.6107 74.8471 27.3549 75.0429 27.0476C75.2364 26.7267 75.5285 26.4253 75.9192 26.1432C76.3242 25.8589 76.8621 25.6649 77.533 25.5612C78.3751 25.431 79.1132 25.5039 79.7473 25.7799C80.3815 26.0559 80.894 26.4755 81.2848 27.0385C81.6899 27.5993 81.9557 28.2439 82.0821 28.9725L83.2833 35.8938L80.8426 36.2712L79.6836 29.5927C79.5712 28.9451 79.2837 28.4284 78.821 28.0428C78.3727 27.6549 77.7774 27.5184 77.0352 27.6331C76.45 27.7236 75.9964 27.9392 75.6745 28.2799C75.3645 28.6049 75.1625 29.0032 75.0685 29.475C74.9721 29.9332 74.9673 30.4119 75.0539 30.9111L76.1111 37.0027L73.6704 37.38Z" fill="#334456"/>
<path d="M99.3303 38.3324L98.6667 22.277L101.219 23.0119L101.7 36.3348L109.956 25.5273L112.509 26.2622L102.443 39.2287L99.3303 38.3324Z" fill="#334456"/>
<path d="M117.446 32.1732C117.06 31.9574 116.82 31.6565 116.726 31.2704C116.632 30.8842 116.689 30.5265 116.895 30.1973C117.109 29.8563 117.415 29.6379 117.811 29.5419C118.215 29.4342 118.61 29.4882 118.996 29.704C119.382 29.9198 119.622 30.2207 119.716 30.6069C119.83 30.9882 119.779 31.3494 119.565 31.6903C119.351 32.0313 119.036 32.2522 118.62 32.353C118.223 32.4489 117.832 32.389 117.446 32.1732ZM109.526 42.5412L115.393 33.1935L117.522 34.3838L111.654 43.7315L109.526 42.5412Z" fill="#334456"/>
<path d="M119.392 49.9246C118.765 49.3575 118.332 48.7479 118.092 48.0957C117.872 47.4431 117.801 46.7827 117.878 46.1144C117.965 45.4363 118.176 44.7847 118.51 44.1596C118.854 43.5439 119.282 42.9845 119.792 42.4814C120.303 41.9783 120.877 41.5513 121.514 41.2002C122.161 40.8586 122.837 40.6373 123.541 40.5361C124.255 40.425 124.957 40.464 125.648 40.653C126.358 40.8415 127.027 41.2194 127.654 41.7864C128.177 42.259 128.53 42.7302 128.715 43.1999C128.91 43.6791 129.007 44.1167 129.006 44.5129C129.004 44.9091 128.976 45.2237 128.919 45.4567L129.013 45.5418L133.655 40.9696L135.442 42.5858L124.026 53.8312L122.239 52.2151L123.426 51.0461L123.331 50.9611C123.087 51.024 122.755 51.0645 122.336 51.0826C121.917 51.1008 121.449 51.0281 120.934 50.8646C120.429 50.7105 119.915 50.3972 119.392 49.9246ZM121.211 48.8734C121.723 49.3365 122.277 49.591 122.872 49.637C123.487 49.6825 124.083 49.5787 124.661 49.3255C125.249 49.0817 125.769 48.7379 126.22 48.294C126.67 47.8501 127.012 47.3456 127.245 46.7804C127.488 46.2248 127.568 45.6628 127.483 45.0944C127.419 44.5256 127.131 44.0097 126.619 43.5466C126.107 43.0834 125.543 42.8291 124.928 42.7836C124.323 42.7281 123.726 42.8223 123.138 43.0661C122.56 43.3193 122.046 43.6679 121.595 44.1118C121.144 44.5557 120.797 45.0555 120.554 45.6111C120.321 46.1762 120.242 46.7479 120.316 47.3261C120.401 47.8945 120.699 48.4102 121.211 48.8734Z" fill="#334456"/>
<path d="M128.065 60.8878C127.574 60.0977 127.294 59.3343 127.222 58.5977C127.171 57.866 127.271 57.1769 127.524 56.5304C127.796 55.8888 128.18 55.3045 128.675 54.7777C129.177 54.2626 129.746 53.8291 130.383 53.4772C131.007 53.1321 131.68 52.879 132.402 52.7177C133.123 52.5565 133.847 52.5206 134.573 52.6102C135.3 52.6997 135.982 52.9481 136.62 53.3555C137.271 53.7559 137.834 54.3394 138.31 55.106C138.822 55.9315 139.072 56.7672 139.061 57.6131C139.069 58.4639 138.796 59.2801 138.241 60.0617C137.706 60.8483 136.871 61.5556 135.735 62.1836L135.154 62.5045L131.027 55.8531C130.295 56.3212 129.789 56.9253 129.511 57.6653C129.232 58.4053 129.331 59.1586 129.806 59.9251C130.077 60.3615 130.375 60.6798 130.701 60.88C131.039 61.0733 131.355 61.1914 131.65 61.2343C131.945 61.2772 132.185 61.2867 132.372 61.2629C132.565 61.2508 132.662 61.2448 132.662 61.2448L133.826 63.1199C133.826 63.1199 133.695 63.1526 133.434 63.2178C133.185 63.2762 132.847 63.3125 132.42 63.3268C132 63.3529 131.537 63.3083 131.029 63.1929C130.521 63.0775 130.005 62.8401 129.481 62.4808C128.968 62.1146 128.496 61.5836 128.065 60.8878ZM132.536 55.0427L135.445 59.7305C136.29 59.2002 136.779 58.5972 136.913 57.9213C137.054 57.2572 136.942 56.6303 136.576 56.0407C136.166 55.3802 135.595 54.9595 134.862 54.7785C134.142 54.5906 133.367 54.6787 132.536 55.0427Z" fill="#334456"/>
<path d="M132.647 72.5569C132.332 71.4054 132.338 70.3659 132.667 69.4386C133 68.5244 133.551 67.7547 134.321 67.1292C135.094 66.517 135.978 66.0896 136.973 65.8472C137.967 65.6047 138.959 65.5745 139.95 65.7564C140.945 65.9516 141.822 66.3731 142.582 67.0209C143.346 67.6819 143.885 68.5882 144.2 69.7397C144.512 70.878 144.501 71.9043 144.169 72.8184C143.84 73.7457 143.289 74.5155 142.516 75.1278C141.746 75.7532 140.863 76.1872 139.869 76.4296C138.875 76.6721 137.88 76.6957 136.886 76.5005C135.895 76.3185 135.018 75.8971 134.254 75.2361C133.494 74.5883 132.958 73.6953 132.647 72.5569ZM134.684 72.0601C134.862 72.7087 135.185 73.2087 135.655 73.5601C136.128 73.9248 136.683 74.1496 137.319 74.2346C137.958 74.3328 138.6 74.3034 139.244 74.1464C139.902 73.9859 140.479 73.7182 140.974 73.3433C141.486 72.9783 141.856 72.5281 142.083 71.9927C142.314 71.4705 142.34 70.8852 142.163 70.2366C141.985 69.588 141.66 69.0814 141.186 68.7167C140.713 68.352 140.159 68.1272 139.523 68.0422C138.901 67.9538 138.261 67.9898 137.603 68.1503C136.959 68.3074 136.38 68.5684 135.868 68.9335C135.355 69.2985 134.985 69.7487 134.758 70.2841C134.532 70.8195 134.507 71.4115 134.684 72.0601Z" fill="#334456"/>
<path d="M132.634 87.8861L149.212 88.5926L148.446 90.9234L135.576 90.271L146.529 96.76L145.777 99.0516L132.876 98.5621L143.866 104.869L143.101 107.199L129.006 98.9327L129.907 96.1906L141.929 96.6592L131.734 90.6282L132.634 87.8861Z" fill="#334456"/>
<path d="M133.172 111.847C132.743 112.397 132.294 112.789 131.824 113.022C131.346 113.267 130.898 113.414 130.482 113.464C130.065 113.514 129.731 113.527 129.479 113.505L129.402 113.604L130.783 114.564L129.314 116.445L120.051 110.006L121.52 108.124L122.9 109.084L122.978 108.985C122.88 108.765 122.795 108.459 122.722 108.069C122.649 107.679 122.665 107.232 122.771 106.728C122.868 106.236 123.131 105.714 123.56 105.164C124.075 104.504 124.66 104.02 125.314 103.711C125.972 103.421 126.656 103.269 127.368 103.255C128.092 103.249 128.804 103.362 129.503 103.594C130.195 103.837 130.837 104.165 131.431 104.578C132.026 104.991 132.548 105.473 132.999 106.024C133.441 106.586 133.76 107.19 133.957 107.835C134.166 108.49 134.215 109.152 134.105 109.822C133.999 110.512 133.688 111.187 133.172 111.847ZM131.19 111.105C131.611 110.566 131.806 110.005 131.774 109.424C131.755 108.85 131.579 108.304 131.247 107.784C130.907 107.276 130.475 106.84 129.95 106.475C129.426 106.111 128.856 105.851 128.241 105.695C127.618 105.55 127.007 105.549 126.409 105.694C125.823 105.846 125.319 106.192 124.898 106.731C124.478 107.27 124.281 107.821 124.31 108.384C124.341 108.965 124.527 109.51 124.867 110.019C125.199 110.538 125.627 110.979 126.151 111.344C126.675 111.708 127.249 111.963 127.873 112.108C128.488 112.264 129.089 112.266 129.675 112.114C130.264 111.98 130.769 111.644 131.19 111.105Z" fill="#334456"/>
<path d="M113.337 114.59C114.047 114.05 114.721 113.74 115.358 113.659C115.995 113.578 116.582 113.667 117.119 113.925C117.653 114.203 118.125 114.582 118.534 115.061L122.348 119.53L123.92 118.334L125.173 119.803L123.601 120.998L125.399 123.105L123.472 124.57L121.674 122.463L119.578 124.057L118.324 122.589L120.421 120.995L116.634 116.558C115.953 115.76 115.144 115.716 114.209 116.427C113.972 116.607 113.766 116.79 113.59 116.976C113.415 117.163 113.327 117.256 113.327 117.256L112.06 115.771C112.06 115.771 112.183 115.643 112.428 115.386C112.662 115.138 112.966 114.872 113.337 114.59Z" fill="#334456"/>
<path d="M103.176 119.859C104.058 119.478 104.896 119.288 105.693 119.289C106.495 119.303 107.231 119.458 107.9 119.755C108.575 120.065 109.173 120.475 109.692 120.987C110.198 121.505 110.605 122.081 110.913 122.715C111.22 123.348 111.417 124.015 111.502 124.715C111.574 125.421 111.511 126.109 111.312 126.782C111.12 127.467 110.764 128.094 110.245 128.664C109.733 129.247 109.036 129.729 108.155 130.11C107.287 130.486 106.509 130.671 105.823 130.668C105.13 130.682 104.525 130.583 104.008 130.37C103.491 130.158 103.06 129.909 102.714 129.622C102.368 129.336 102.115 129.077 101.955 128.845C101.781 128.62 101.695 128.507 101.695 128.507L103.825 127.585C103.825 127.585 103.903 127.664 104.059 127.822C104.203 127.986 104.42 128.155 104.712 128.329C105.003 128.504 105.365 128.61 105.798 128.649C106.217 128.693 106.709 128.593 107.275 128.348C107.946 128.058 108.426 127.655 108.716 127.138C109.013 126.634 109.155 126.076 109.145 125.464C109.121 124.858 108.967 124.263 108.684 123.679C108.4 123.095 108.023 122.597 107.552 122.184C107.068 121.777 106.524 121.508 105.92 121.379C105.322 121.262 104.687 121.348 104.017 121.638C103.451 121.883 103.049 122.17 102.811 122.498C102.559 122.832 102.409 123.161 102.358 123.483C102.308 123.806 102.302 124.072 102.34 124.281C102.365 124.496 102.377 124.603 102.377 124.603L100.246 125.525C100.246 125.525 100.212 125.389 100.144 125.118C100.063 124.852 100.02 124.502 100.016 124.068C100.012 123.634 100.094 123.162 100.261 122.654C100.428 122.146 100.74 121.642 101.198 121.143C101.649 120.663 102.308 120.235 103.176 119.859Z" fill="#334456"/>
<path d="M95.8615 122.328L98.5307 137.709L96.09 138.086L95.0118 131.873L94.8833 131.893C94.8162 132.097 94.6847 132.353 94.4889 132.661C94.2955 132.981 94.0034 133.283 93.6126 133.565C93.2076 133.849 92.6697 134.043 91.9989 134.147C91.1568 134.277 90.4186 134.204 89.7845 133.928C89.1503 133.652 88.6379 133.233 88.247 132.67C87.8419 132.109 87.5762 131.464 87.4497 130.736L86.2486 123.814L88.6892 123.437L89.8483 130.115C89.9607 130.763 90.2482 131.28 90.7108 131.665C91.1592 132.053 91.7545 132.19 92.4967 132.075C93.0819 131.985 93.5354 131.769 93.8574 131.428C94.1674 131.103 94.3694 130.705 94.4634 130.233C94.5597 129.775 94.5646 129.296 94.4779 128.797L93.4208 122.705L95.8615 122.328Z" fill="#334456"/>
<path d="M70.1996 121.375L70.8632 137.43L68.3106 136.695L67.83 123.372L59.5736 134.18L57.021 133.445L67.0866 120.478L70.1996 121.375Z" fill="#334456"/>
<path d="M52.0838 127.536C52.4697 127.752 52.7096 128.053 52.8036 128.439C52.8976 128.825 52.8412 129.183 52.6346 129.512C52.4206 129.853 52.1153 130.071 51.7187 130.167C51.3148 130.275 50.9198 130.221 50.5339 130.005C50.1481 129.789 49.9081 129.488 49.8141 129.102C49.7003 128.721 49.7504 128.36 49.9645 128.019C50.1785 127.678 50.4937 127.457 50.9101 127.356C51.3067 127.26 51.6979 127.32 52.0838 127.536ZM60.0041 117.168L54.1368 126.516L52.0082 125.325L57.8755 115.978L60.0041 117.168Z" fill="#334456"/>
<path d="M50.1395 109.783C50.7665 110.35 51.2 110.959 51.44 111.611C51.6594 112.264 51.7307 112.924 51.6536 113.593C51.5666 114.271 51.3561 114.922 51.0221 115.548C50.6778 116.163 50.2502 116.723 49.7395 117.226C49.2287 117.729 48.6549 118.156 48.0179 118.507C47.3704 118.848 46.6946 119.07 45.9906 119.171C45.2765 119.282 44.5744 119.243 43.8842 119.054C43.1736 118.866 42.5047 118.488 41.8777 117.921C41.3552 117.448 41.0016 116.977 40.8169 116.507C40.6219 116.028 40.525 115.59 40.5262 115.194C40.5275 114.798 40.5562 114.483 40.6124 114.25L40.5184 114.165L35.8767 118.738L34.0897 117.121L45.5059 105.876L47.293 107.492L46.1063 108.661L46.2004 108.746C46.4446 108.683 46.7764 108.643 47.1957 108.624C47.615 108.606 48.0825 108.679 48.598 108.843C49.1031 108.997 49.6169 109.31 50.1395 109.783ZM48.3205 110.834C47.8085 110.371 47.255 110.116 46.6602 110.07C46.045 110.025 45.4485 110.128 44.8707 110.382C44.2824 110.625 43.763 110.969 43.3123 111.413C42.8617 111.857 42.5199 112.362 42.287 112.927C42.0436 113.482 41.9642 114.044 42.0487 114.613C42.1127 115.182 42.4008 115.697 42.9128 116.161C43.4249 116.624 43.9886 116.878 44.6038 116.924C45.2091 116.979 45.8058 116.885 46.3941 116.641C46.9719 116.388 47.4861 116.039 47.9367 115.595C48.3874 115.151 48.7344 114.652 48.9778 114.096C49.2107 113.531 49.2899 112.959 49.2154 112.381C49.1309 111.813 48.8326 111.297 48.3205 110.834Z" fill="#334456"/>
<path d="M41.4653 98.8193C41.9555 99.6094 42.2363 100.373 42.3077 101.109C42.3593 101.841 42.2587 102.53 42.006 103.177C41.7334 103.818 41.3498 104.403 40.8551 104.929C40.3531 105.444 39.7837 105.878 39.1469 106.23C38.5227 106.575 37.8498 106.828 37.1283 106.989C36.4067 107.151 35.6828 107.187 34.9566 107.097C34.2304 107.007 33.548 106.759 32.9096 106.352C32.2588 105.951 31.6955 105.368 31.2199 104.601C30.7077 103.776 30.4574 102.94 30.4691 102.094C30.461 101.243 30.7343 100.427 31.2888 99.6454C31.8236 98.8588 32.659 98.1515 33.7952 97.5235L34.3757 97.2026L38.5027 103.854C39.235 103.386 39.7405 102.782 40.0191 102.042C40.2977 101.302 40.1992 100.549 39.7236 99.782C39.4528 99.3456 39.1547 99.0274 38.8293 98.8271C38.4914 98.6338 38.175 98.5157 37.8801 98.4728C37.5852 98.4299 37.3446 98.4204 37.1581 98.4442C36.9644 98.4563 36.8676 98.4623 36.8676 98.4623L35.7041 96.5872C35.7041 96.5872 35.8348 96.5546 36.0961 96.4893C36.3449 96.431 36.6829 96.3946 37.1099 96.3803C37.5297 96.3542 37.9933 96.3988 38.5008 96.5142C39.0084 96.6296 39.5245 96.867 40.0493 97.2263C40.5615 97.5925 41.0335 98.1235 41.4653 98.8193ZM36.9935 104.664L34.0849 99.9767C33.2402 100.507 32.7509 101.11 32.6169 101.786C32.4757 102.45 32.588 103.077 32.9538 103.666C33.3636 104.327 33.9348 104.748 34.6675 104.929C35.3877 105.117 36.1631 105.028 36.9935 104.664Z" fill="#334456"/>
<path d="M36.8851 87.1521C37.2003 88.3037 37.1935 89.3432 36.8647 90.2705C36.5323 91.1846 35.9811 91.9544 35.2112 92.5799C34.4376 93.1921 33.5536 93.6194 32.5593 93.8619C31.565 94.1043 30.5724 94.1346 29.5814 93.9526C28.5868 93.7574 27.7096 93.336 26.9497 92.6882C26.1861 92.0272 25.6467 91.1209 25.3315 89.9694C25.02 88.831 25.0304 87.8048 25.3628 86.8907C25.6916 85.9633 26.2428 85.1936 27.0163 84.5813C27.7863 83.9559 28.6684 83.5219 29.6627 83.2795C30.657 83.037 31.6515 83.0134 32.6461 83.2086C33.637 83.3905 34.5143 83.812 35.2778 84.473C36.0378 85.1208 36.5735 86.0138 36.8851 87.1521ZM34.8475 87.649C34.6699 87.0004 34.3463 86.5004 33.8767 86.149C33.4034 85.7843 32.8489 85.5595 32.2131 85.4745C31.5737 85.3762 30.9319 85.4057 30.2877 85.5627C29.6295 85.7232 29.0529 85.9909 28.558 86.3657C28.0454 86.7308 27.6756 87.181 27.4487 87.7164C27.2181 88.2386 27.1916 88.8239 27.3692 89.4725C27.5467 90.1211 27.8721 90.6277 28.3454 90.9924C28.8187 91.357 29.3732 91.5819 30.009 91.6669C30.6307 91.7553 31.2707 91.7193 31.9289 91.5588C32.5731 91.4017 33.1515 91.1406 33.6641 90.7756C34.1767 90.4106 34.5464 89.9604 34.7734 89.425C35.0003 88.8896 35.025 88.2976 34.8475 87.649Z" fill="#334456"/>
<path d="M100.957 78.5964L76.4602 93.1821L76.4602 64.0107L100.957 78.5964Z" fill="#334456"/>
</svg>
