<svg width="14" height="15" viewBox="0 0 14 15" fill="none" xmlns="http://www.w3.org/2000/svg">
<path d="M6.36553 0.0131849C6.45549 -0.00439496 6.54836 -0.00439496 6.63832 0.0131849L12.4425 1.18517C12.7675 1.24963 13.0026 1.5397 13.0026 1.87372C13.0026 2.20774 12.7675 2.4978 12.4425 2.56226L10.2166 3.01348V4.68649C10.2166 6.75798 8.55369 8.43686 6.50193 8.43686C4.45016 8.43686 2.78728 6.75798 2.78728 4.68649V3.01348L1.39429 2.7322V4.63961L1.84991 6.93671C1.87603 7.07442 1.8412 7.21799 1.75414 7.3264C1.66708 7.43481 1.53358 7.49927 1.39429 7.49927H0.465623C0.326324 7.49927 0.195731 7.43774 0.105766 7.3264C0.0158022 7.21506 -0.0190226 7.07442 0.00999808 6.93671L0.465623 4.63961V2.53589C0.189926 2.4392 0.00129187 2.17551 0.00129187 1.87372C0.00129187 1.5397 0.236359 1.24963 0.561391 1.18517L6.36553 0.0131849ZM3.24871 9.60006C3.55342 9.50044 3.88136 9.61178 4.10192 9.84911L6.16238 12.0612C6.34522 12.2575 6.65574 12.2575 6.83857 12.0612L8.89904 9.84911C9.11959 9.61178 9.44753 9.50044 9.75224 9.60006C11.6386 10.2124 13.0026 11.9938 13.0026 14.1005C13.0026 14.5986 12.6021 15 12.1116 15H0.892227C0.401777 15 0.00129187 14.5957 0.00129187 14.1005C0.00129187 11.9938 1.36526 10.2124 3.24871 9.60006Z" fill="white"/>
</svg>
