<svg width="23" height="23" viewBox="0 0 23 23" fill="none" xmlns="http://www.w3.org/2000/svg">
<path d="M2.87519 20.1248V15.3331H4.79185V18.2081H7.66685V20.1248H2.87519ZM15.3335 20.1248V18.2081H18.2085V15.3331H20.1252V20.1248H15.3335ZM11.5002 18.2081C9.64741 18.2081 8.06616 17.5532 6.75644 16.2435C5.44671 14.9338 4.79185 13.3525 4.79185 11.4998C4.79185 9.64697 5.44671 8.06572 6.75644 6.756C8.06616 5.44628 9.64741 4.79142 11.5002 4.79142C13.353 4.79142 14.9342 5.44628 16.2439 6.756C17.5537 8.06572 18.2085 9.64697 18.2085 11.4998C18.2085 13.3525 17.5537 14.9338 16.2439 16.2435C14.9342 17.5532 13.353 18.2081 11.5002 18.2081ZM11.5002 16.2914C12.8259 16.2914 13.9561 15.8241 14.8908 14.8894C15.8255 13.9547 16.2925 12.8248 16.2919 11.4998C16.2919 10.1741 15.8245 9.04418 14.8898 8.11013C13.9551 7.17607 12.8252 6.70872 11.5002 6.70809C10.1745 6.70809 9.04462 7.17543 8.11056 8.11013C7.17651 9.04482 6.70916 10.1747 6.70852 11.4998C6.70852 12.8254 7.17587 13.9556 8.11056 14.8903C9.04526 15.825 10.1751 16.2921 11.5002 16.2914ZM2.87519 7.66642V2.87475H7.66685V4.79142H4.79185V7.66642H2.87519ZM18.2085 7.66642V4.79142H15.3335V2.87475H20.1252V7.66642H18.2085Z" fill="white"/>
</svg>
