<svg width="136" height="136" viewBox="0 0 136 136" fill="none" xmlns="http://www.w3.org/2000/svg">
<g clip-path="url(#clip0_25_292)">
<path fill-rule="evenodd" clip-rule="evenodd" d="M116.265 91.2677C108.734 92.768 93.3096 97.4999 91.2607 98.9326C90.1082 99.7385 88.7576 99.9202 88.3322 99.3119C87.3921 97.9673 91.1317 94.5897 95.5042 92.867C98.4042 91.6972 98.4265 91.7291 94.0871 91.522C84.0288 90.976 65.6717 85.1743 63.0909 81.688C62.3201 80.6539 44.2807 85.7363 22.1614 64.7375C15.4633 58.3623 11.0364 47.8727 14.2919 46.1206C14.8489 45.8264 15.492 45.9964 15.8598 46.4542L19.2529 50.8976C37.444 74.5955 57.3811 75.9082 57.4355 75.9178C57.3301 75.5625 51.3329 69.0309 57.6998 60.0029C60.5053 56.0391 64.9839 53.2412 69.8705 53.6853C85.5288 55.0822 87.5207 71.5649 72.8728 78.0892C70.8978 78.9459 70.7315 78.7761 75.2748 80.8427C83.0913 84.3862 95.5169 86.6135 107.089 86.5298C111.39 86.4776 111.403 86.5642 106.15 83.7548C93.7584 77.2135 89.3003 71.1786 97.5469 72.1333C99.4158 72.3519 100.116 72.6722 108.448 77.4289C111.631 79.2547 116.673 81.8304 119.639 83.1409C125.2 85.6399 125.686 86.0625 124.668 87.5373C123.364 89.3544 121.412 90.2431 116.265 91.2677ZM76.9282 70.3912C79.9999 65.2403 74.3895 59.5345 65.7394 58.9573C61.3872 58.6638 59.1288 62.8647 60.88 68.0276C61.9345 71.1036 66.0253 75.7269 67.5487 75.5197C71.1493 75.1471 75.5605 72.7299 76.9282 70.3912Z" fill="#1700FF"/>
</g>
<defs>
<clipPath id="clip0_25_292">
<rect width="97" height="97" fill="white" transform="matrix(0.825111 -0.57695 -0.57695 -0.825111 55.9644 136)"/>
</clipPath>
</defs>
</svg>
