<svg width="14" height="14" viewBox="0 0 14 14" fill="none" xmlns="http://www.w3.org/2000/svg">
<g clip-path="url(#clip0_25_575)">
<path d="M11.725 3.22V0.875H11.62C9.66 0.9625 8.0325 2.2225 7.0525 3.22L7 3.2725L6.9475 3.22C5.95 2.2225 4.34 0.9625 2.38 0.875H2.275V3.22H0V7.2625C0 8.2425 0.035 9.2225 0.105 10.0275C0.169104 10.804 0.510098 11.5316 1.06582 12.0777C1.62155 12.6238 2.35501 12.952 3.1325 13.0025C4.375 13.0725 5.6875 13.125 7 13.125C8.3125 13.125 9.625 13.0725 10.8675 12.985C11.645 12.9345 12.3784 12.6063 12.9342 12.0602C13.4899 11.5141 13.8309 10.7865 13.895 10.01C13.965 9.205 14 8.225 14 7.245V3.22H11.725ZM11.725 7.2625C11.725 8.19 11.69 9.1 11.62 9.835C11.5675 10.3075 11.1825 10.6925 10.71 10.71C8.23976 10.885 5.76024 10.885 3.29 10.71C2.8175 10.6925 2.415 10.3075 2.38 9.835C2.31 9.1 2.275 8.1725 2.275 7.2625V3.22C3.92 3.29 5.565 5.0575 6.055 5.74L7 7.0525L7.945 5.74C8.435 5.04 10.08 3.29 11.725 3.22V7.2625Z" fill="white"/>
</g>
<defs>
<clipPath id="clip0_25_575">
<rect width="14" height="14" fill="white"/>
</clipPath>
</defs>
</svg>
