<svg width="52" height="52" viewBox="0 0 52 52" fill="none" xmlns="http://www.w3.org/2000/svg">
<path fill-rule="evenodd" clip-rule="evenodd" d="M46.3473 35.3947L46.538 35.594C47.233 36.3575 47.6325 37.3441 47.6647 38.376L47.6668 38.6512C47.6668 38.9762 47.6668 39.1365 47.6582 39.273C47.5917 40.3258 47.1435 41.3182 46.3976 42.0641C45.6517 42.81 44.6593 43.2582 43.6065 43.3247C43.3993 43.3335 43.192 43.3364 42.9847 43.3333H9.01566C8.69066 43.3333 8.53033 43.3333 8.39383 43.3247C7.34105 43.2582 6.34867 42.81 5.60276 42.0641C4.85684 41.3182 4.40863 40.3258 4.34216 39.273C4.3335 39.1365 4.3335 38.974 4.3335 38.6533L4.33566 38.3782C4.37005 37.2508 4.84263 36.1813 5.653 35.3968L8.45666 32.5H43.5437L46.3473 35.3947ZM18.9585 39C18.9585 38.569 19.1297 38.1557 19.4344 37.851C19.7392 37.5462 20.1525 37.375 20.5835 37.375H31.4168C31.8478 37.375 32.2611 37.5462 32.5659 37.851C32.8706 38.1557 33.0418 38.569 33.0418 39C33.0418 39.431 32.8706 39.8443 32.5659 40.1491C32.2611 40.4538 31.8478 40.625 31.4168 40.625H20.5835C20.1525 40.625 19.7392 40.4538 19.4344 40.1491C19.1297 39.8443 18.9585 39.431 18.9585 39ZM9.43166 15.1667C9.43166 11.0803 9.43166 9.03933 10.7013 7.76967C11.971 6.5 14.012 6.5 18.0983 6.5H33.902C37.9883 6.5 40.0315 6.5 41.299 7.76967C42.5687 9.03933 42.5687 11.0803 42.5687 15.1667V30.3333H9.43166V15.1667ZM26.0002 14.0833C26.4311 14.0833 26.8445 13.9121 27.1492 13.6074C27.454 13.3026 27.6252 12.8893 27.6252 12.4583C27.6252 12.0274 27.454 11.614 27.1492 11.3093C26.8445 11.0045 26.4311 10.8333 26.0002 10.8333C25.5692 10.8333 25.1559 11.0045 24.8511 11.3093C24.5464 11.614 24.3752 12.0274 24.3752 12.4583C24.3752 12.8893 24.5464 13.3026 24.8511 13.6074C25.1559 13.9121 25.5692 14.0833 26.0002 14.0833Z" fill="#FC6840"/>
</svg>
