<svg width="129" height="127" viewBox="0 0 129 127" fill="none" xmlns="http://www.w3.org/2000/svg">
<rect width="3.48649" height="3.45083" rx="1.65108" fill="white"/>
<rect x="13.9462" width="3.48649" height="3.45083" rx="1.65108" fill="white"/>
<rect x="27.892" width="3.48649" height="3.45083" rx="1.65108" fill="white"/>
<rect x="41.8382" width="3.48649" height="3.45083" rx="1.65108" fill="white"/>
<rect x="55.7835" width="3.48649" height="3.45083" rx="1.65108" fill="white"/>
<rect x="69.7302" width="3.48649" height="3.45083" rx="1.65108" fill="white"/>
<rect x="83.676" width="3.48649" height="3.45083" rx="1.65108" fill="white"/>
<rect x="97.6217" width="3.48649" height="3.45083" rx="1.65108" fill="white"/>
<rect x="111.568" width="3.48649" height="3.45083" rx="1.65108" fill="white"/>
<rect x="125.514" width="3.48649" height="3.45083" rx="1.65108" fill="white"/>
<rect y="13.8036" width="3.48649" height="3.45083" rx="1.65108" fill="white"/>
<rect x="13.9462" y="13.8036" width="3.48649" height="3.45083" rx="1.65108" fill="white"/>
<rect x="27.892" y="13.8036" width="3.48649" height="3.45083" rx="1.65108" fill="white"/>
<rect x="41.8382" y="13.8036" width="3.48649" height="3.45083" rx="1.65108" fill="white"/>
<rect x="55.7835" y="13.8036" width="3.48649" height="3.45083" rx="1.65108" fill="white"/>
<rect x="69.7302" y="13.8036" width="3.48649" height="3.45083" rx="1.65108" fill="white"/>
<rect x="83.676" y="13.8036" width="3.48649" height="3.45083" rx="1.65108" fill="white"/>
<rect x="97.6217" y="13.8036" width="3.48649" height="3.45083" rx="1.65108" fill="white"/>
<rect x="111.568" y="13.8036" width="3.48649" height="3.45083" rx="1.65108" fill="white"/>
<rect x="125.514" y="13.8036" width="3.48649" height="3.45083" rx="1.65108" fill="white"/>
<rect y="27.6063" width="3.48649" height="3.45083" rx="1.65108" fill="white"/>
<rect x="13.9462" y="27.6063" width="3.48649" height="3.45083" rx="1.65108" fill="white"/>
<rect x="27.892" y="27.6063" width="3.48649" height="3.45083" rx="1.65108" fill="white"/>
<rect x="41.8382" y="27.6063" width="3.48649" height="3.45083" rx="1.65108" fill="white"/>
<rect x="55.7835" y="27.6063" width="3.48649" height="3.45083" rx="1.65108" fill="white"/>
<rect x="69.7302" y="27.6063" width="3.48649" height="3.45083" rx="1.65108" fill="white"/>
<rect x="83.676" y="27.6063" width="3.48649" height="3.45083" rx="1.65108" fill="white"/>
<rect x="97.6217" y="27.6063" width="3.48649" height="3.45083" rx="1.65108" fill="white"/>
<rect x="111.568" y="27.6063" width="3.48649" height="3.45083" rx="1.65108" fill="white"/>
<rect x="125.514" y="27.6063" width="3.48649" height="3.45083" rx="1.65108" fill="white"/>
<rect y="41.4095" width="3.48649" height="3.45083" rx="1.65108" fill="white"/>
<rect x="13.9462" y="41.4095" width="3.48649" height="3.45083" rx="1.65108" fill="white"/>
<rect x="27.892" y="41.4095" width="3.48649" height="3.45083" rx="1.65108" fill="white"/>
<rect x="41.8382" y="41.4095" width="3.48649" height="3.45083" rx="1.65108" fill="white"/>
<rect x="55.7835" y="41.4095" width="3.48649" height="3.45083" rx="1.65108" fill="white"/>
<rect x="69.7302" y="41.4095" width="3.48649" height="3.45083" rx="1.65108" fill="white"/>
<rect x="83.676" y="41.4095" width="3.48649" height="3.45083" rx="1.65108" fill="white"/>
<rect x="97.6217" y="41.4095" width="3.48649" height="3.45083" rx="1.65108" fill="white"/>
<rect x="111.568" y="41.4095" width="3.48649" height="3.45083" rx="1.65108" fill="white"/>
<rect x="125.514" y="41.4095" width="3.48649" height="3.45083" rx="1.65108" fill="white"/>
<rect y="55.2131" width="3.48649" height="3.45083" rx="1.65108" fill="white"/>
<rect x="13.9462" y="55.2131" width="3.48649" height="3.45083" rx="1.65108" fill="white"/>
<rect x="27.892" y="55.2131" width="3.48649" height="3.45083" rx="1.65108" fill="white"/>
<rect x="41.8382" y="55.2131" width="3.48649" height="3.45083" rx="1.65108" fill="white"/>
<rect x="55.7835" y="55.2131" width="3.48649" height="3.45083" rx="1.65108" fill="white"/>
<rect x="69.7302" y="55.2131" width="3.48649" height="3.45083" rx="1.65108" fill="white"/>
<rect x="83.676" y="55.2131" width="3.48649" height="3.45083" rx="1.65108" fill="white"/>
<rect x="97.6217" y="55.2131" width="3.48649" height="3.45083" rx="1.65108" fill="white"/>
<rect x="111.568" y="55.2131" width="3.48649" height="3.45083" rx="1.65108" fill="white"/>
<rect x="125.514" y="55.2131" width="3.48649" height="3.45083" rx="1.65108" fill="white"/>
<rect y="69.0167" width="3.48649" height="3.45083" rx="1.65108" fill="white"/>
<rect x="13.9462" y="69.0167" width="3.48649" height="3.45083" rx="1.65108" fill="white"/>
<rect x="27.892" y="69.0167" width="3.48649" height="3.45083" rx="1.65108" fill="white"/>
<rect x="41.8382" y="69.0167" width="3.48649" height="3.45083" rx="1.65108" fill="white"/>
<rect x="55.7835" y="69.0167" width="3.48649" height="3.45083" rx="1.65108" fill="white"/>
<rect x="69.7302" y="69.0167" width="3.48649" height="3.45083" rx="1.65108" fill="white"/>
<rect x="83.676" y="69.0167" width="3.48649" height="3.45083" rx="1.65108" fill="white"/>
<rect x="97.6217" y="69.0167" width="3.48649" height="3.45083" rx="1.65108" fill="white"/>
<rect x="111.568" y="69.0167" width="3.48649" height="3.45083" rx="1.65108" fill="white"/>
<rect x="125.514" y="69.0167" width="3.48649" height="3.45083" rx="1.65108" fill="white"/>
<rect y="82.8199" width="3.48649" height="3.45083" rx="1.65108" fill="white"/>
<rect y="96.1327" width="3.48649" height="3.45083" rx="1.65108" fill="white"/>
<rect y="109.446" width="3.48649" height="3.45083" rx="1.65108" fill="white"/>
<rect y="122.758" width="3.48649" height="3.45083" rx="1.65108" fill="white"/>
<rect x="13.9462" y="82.8199" width="3.48649" height="3.45083" rx="1.65108" fill="white"/>
<rect x="13.9462" y="96.1327" width="3.48649" height="3.45083" rx="1.65108" fill="white"/>
<rect x="13.9462" y="109.446" width="3.48649" height="3.45083" rx="1.65108" fill="white"/>
<rect x="13.9462" y="122.758" width="3.48649" height="3.45083" rx="1.65108" fill="white"/>
<rect x="27.892" y="82.8199" width="3.48649" height="3.45083" rx="1.65108" fill="white"/>
<rect x="27.892" y="96.1327" width="3.48649" height="3.45083" rx="1.65108" fill="white"/>
<rect x="27.892" y="109.446" width="3.48649" height="3.45083" rx="1.65108" fill="white"/>
<rect x="27.892" y="122.758" width="3.48649" height="3.45083" rx="1.65108" fill="white"/>
<rect x="41.8382" y="82.8199" width="3.48649" height="3.45083" rx="1.65108" fill="white"/>
<rect x="41.8382" y="96.1327" width="3.48649" height="3.45083" rx="1.65108" fill="white"/>
<rect x="41.8382" y="109.446" width="3.48649" height="3.45083" rx="1.65108" fill="white"/>
<rect x="41.8382" y="122.758" width="3.48649" height="3.45083" rx="1.65108" fill="white"/>
<rect x="55.7835" y="82.8199" width="3.48649" height="3.45083" rx="1.65108" fill="white"/>
<rect x="55.7835" y="96.1327" width="3.48649" height="3.45083" rx="1.65108" fill="white"/>
<rect x="55.7835" y="109.446" width="3.48649" height="3.45083" rx="1.65108" fill="white"/>
<rect x="55.7835" y="122.758" width="3.48649" height="3.45083" rx="1.65108" fill="white"/>
<rect x="69.7302" y="82.8199" width="3.48649" height="3.45083" rx="1.65108" fill="white"/>
<rect x="69.7302" y="96.1327" width="3.48649" height="3.45083" rx="1.65108" fill="white"/>
<rect x="69.7302" y="109.446" width="3.48649" height="3.45083" rx="1.65108" fill="white"/>
<rect x="69.7302" y="122.758" width="3.48649" height="3.45083" rx="1.65108" fill="white"/>
<rect x="83.676" y="82.8199" width="3.48649" height="3.45083" rx="1.65108" fill="white"/>
<rect x="83.676" y="96.1327" width="3.48649" height="3.45083" rx="1.65108" fill="white"/>
<rect x="83.676" y="109.446" width="3.48649" height="3.45083" rx="1.65108" fill="white"/>
<rect x="83.676" y="122.758" width="3.48649" height="3.45083" rx="1.65108" fill="white"/>
<rect x="97.6217" y="82.8199" width="3.48649" height="3.45083" rx="1.65108" fill="white"/>
<rect x="97.6217" y="96.1327" width="3.48649" height="3.45083" rx="1.65108" fill="white"/>
<rect x="97.6217" y="109.446" width="3.48649" height="3.45083" rx="1.65108" fill="white"/>
<rect x="97.6217" y="122.758" width="3.48649" height="3.45083" rx="1.65108" fill="white"/>
<rect x="111.568" y="82.8199" width="3.48649" height="3.45083" rx="1.65108" fill="white"/>
<rect x="111.568" y="96.1327" width="3.48649" height="3.45083" rx="1.65108" fill="white"/>
<rect x="111.568" y="109.446" width="3.48649" height="3.45083" rx="1.65108" fill="white"/>
<rect x="111.568" y="122.758" width="3.48649" height="3.45083" rx="1.65108" fill="white"/>
<rect x="125.514" y="82.8199" width="3.48649" height="3.45083" rx="1.65108" fill="white"/>
<rect x="125.514" y="96.1327" width="3.48649" height="3.45083" rx="1.65108" fill="white"/>
<rect x="125.514" y="109.446" width="3.48649" height="3.45083" rx="1.65108" fill="white"/>
<rect x="125.514" y="122.758" width="3.48649" height="3.45083" rx="1.65108" fill="white"/>
</svg>
