<svg width="38" height="43" viewBox="0 0 38 43" fill="none" xmlns="http://www.w3.org/2000/svg">
<path d="M18.1173 0.0377966C18.3733 -0.0125989 18.6376 -0.0125989 18.8937 0.0377966L35.4131 3.3975C36.3382 3.58228 37.0072 4.41381 37.0072 5.37132C37.0072 6.32883 36.3382 7.16036 35.4131 7.34514L29.0779 8.63863V13.4346C29.0779 19.3729 24.3451 24.1856 18.5055 24.1856C12.6658 24.1856 7.93301 19.3729 7.93301 13.4346V8.63863L3.96835 7.8323V13.3002L5.26512 19.8852C5.33946 20.28 5.24034 20.6915 4.99255 21.0023C4.74476 21.3131 4.36481 21.4979 3.96835 21.4979H1.32523C0.928766 21.4979 0.557078 21.3215 0.301027 21.0023C0.0449755 20.6832 -0.0541412 20.28 0.028456 19.8852L1.32523 13.3002V7.26955C0.540559 6.99237 0.00367685 6.23644 0.00367685 5.37132C0.00367685 4.41381 0.672715 3.58228 1.5978 3.3975L18.1173 0.0377966ZM9.24631 27.5201C10.1136 27.2346 11.0469 27.5537 11.6747 28.2341L17.5391 34.5755C18.0594 35.1383 18.9432 35.1383 19.4636 34.5755L25.328 28.2341C25.9557 27.5537 26.8891 27.2346 27.7564 27.5201C33.1252 29.2756 37.0072 34.3823 37.0072 40.4214C37.0072 41.8493 35.8674 43 34.4715 43H2.53941C1.14352 43 0.00367685 41.8409 0.00367685 40.4214C0.00367685 34.3823 3.88575 29.2756 9.24631 27.5201Z" fill="#9162F1"/>
</svg>
