<svg width="332" height="352" viewBox="0 0 332 352" fill="none" xmlns="http://www.w3.org/2000/svg">
<g clip-path="url(#clip0_25_793)">
<path d="M189.886 0.560468C214.996 -1.37376 239.832 18.6438 243.266 43.5941C245.051 56.5042 241.755 69.8034 244.193 82.6105C247.615 100.591 261.692 114.588 276.411 125.484C291.129 136.38 307.45 145.673 319.021 159.854C330.603 174.034 336.326 195.185 326.632 210.716C317.258 225.743 296.76 230.974 287.558 246.115C272.588 270.734 295.764 304.806 283.072 330.672C276.663 343.731 261.795 351.388 247.249 351.525C232.702 351.662 218.67 345.184 207.397 335.983C194.098 325.133 183.431 310.162 167.339 304.199C141.141 294.505 113.604 312.326 86.2158 317.796C60.4185 322.958 31.3822 315.702 14.2031 295.776C-2.976 275.85 -4.91023 242.98 12.967 223.672C22.6153 213.245 37.3223 206.538 41.9232 193.09C47.6343 176.403 34.8616 159.785 25.3278 144.952C17.4192 132.649 11.1816 118.743 10.8268 104.127C10.472 89.5005 16.9271 74.1183 29.551 66.7247C60.3269 48.6758 101.827 83.3888 130.852 58.2095C153.273 38.7757 152.506 3.44464 189.886 0.560468Z" stroke="#1700FF" stroke-width="0.858384" stroke-miterlimit="10"/>
<path d="M188.616 9.89976C212.387 8.06854 235.907 27.0217 239.157 50.6444C240.84 62.8678 237.727 75.4574 240.038 87.5778C243.277 104.608 256.611 117.85 270.54 128.162C284.468 138.474 299.919 147.276 310.884 160.701C321.848 174.126 327.262 194.143 318.094 208.85C309.213 223.077 289.813 228.032 281.092 242.362C266.923 265.664 288.863 297.928 276.846 322.42C270.78 334.781 256.703 342.026 242.923 342.163C229.154 342.3 215.866 336.154 205.199 327.456C192.61 317.19 182.515 303.009 167.27 297.367C142.469 288.188 116.397 305.058 90.4736 310.243C66.0498 315.13 38.5586 308.263 22.2951 289.401C6.0201 270.539 4.20033 239.42 21.1277 221.142C30.2723 211.277 44.1896 204.913 48.5387 192.198C53.9408 176.403 41.8548 160.666 32.8246 146.623C25.3395 134.972 19.4338 121.81 19.0904 107.973C18.7471 94.1244 24.8702 79.5662 36.8189 72.5618C65.9582 55.4742 105.249 88.3446 132.718 64.5044C153.937 46.0892 153.216 12.6466 188.616 9.91121V9.89976Z" stroke="#1700FF" stroke-width="0.824049" stroke-linecap="round" stroke-linejoin="round"/>
<path d="M187.345 19.2391C209.777 17.5108 231.969 35.3996 235.048 57.6832C236.639 69.2199 233.698 81.0999 235.872 92.5451C238.928 108.614 251.518 121.112 264.657 130.852C277.807 140.592 292.388 148.889 302.735 161.559C313.081 174.229 318.197 193.125 309.533 207.008C301.155 220.433 282.843 225.114 274.614 238.642C261.246 260.64 281.95 291.084 270.608 314.191C264.886 325.865 251.598 332.698 238.596 332.824C225.594 332.95 213.062 327.159 202.99 318.941C191.11 309.247 181.577 295.868 167.201 290.546C143.796 281.882 119.189 297.802 94.7196 302.689C71.6691 307.301 45.7344 300.823 30.3751 283.015C15.0157 265.218 13.299 235.838 29.2764 218.59C37.906 209.274 51.0335 203.277 55.1423 191.271C60.2469 176.358 48.8361 161.513 40.3095 148.26C33.2364 137.273 27.674 124.843 27.3536 111.784C27.0331 98.714 32.8015 84.9684 44.0749 78.3645C71.5775 62.2384 108.648 93.2547 134.583 70.765C154.612 53.3913 153.925 21.8257 187.333 19.2505L187.345 19.2391Z" stroke="#1700FF" stroke-width="0.789713" stroke-linecap="round" stroke-linejoin="round"/>
<path d="M186.075 28.5784C207.168 26.9531 228.044 43.7775 230.928 64.7335C232.427 75.5835 229.658 86.7539 231.706 97.5123C234.59 112.62 246.413 124.385 258.774 133.53C271.135 142.686 284.846 150.492 294.586 162.406C304.314 174.321 309.121 192.095 300.984 205.142C293.109 217.778 275.884 222.161 268.147 234.888C255.569 255.569 275.049 284.205 264.382 305.939C258.991 316.915 246.505 323.347 234.281 323.462C222.058 323.576 210.27 318.128 200.804 310.403C189.634 301.293 180.672 288.703 167.144 283.702C145.135 275.553 121.993 290.523 98.9772 295.124C77.3001 299.461 52.9106 293.361 38.4668 276.628C24.0231 259.884 22.4093 232.267 37.4368 216.049C45.5514 207.294 57.9007 201.651 61.7577 190.355C66.5532 176.335 55.8291 162.372 47.8175 149.908C41.1679 139.573 35.926 127.888 35.6285 115.607C35.3309 103.315 40.7559 90.3934 51.354 84.1787C77.22 69.014 112.082 98.1761 136.471 77.0255C155.31 60.6819 154.669 30.9933 186.075 28.5784Z" stroke="#1700FF" stroke-width="0.755378" stroke-linecap="round" stroke-linejoin="round"/>
<path d="M184.804 37.9177C204.57 36.3954 224.107 52.1554 226.819 71.7838C228.216 81.947 225.629 92.4079 227.552 102.491C230.253 116.649 241.332 127.659 252.903 136.231C264.474 144.804 277.327 152.117 286.437 163.276C295.547 174.435 300.057 191.076 292.423 203.3C285.041 215.134 268.914 219.243 261.67 231.157C249.893 250.534 268.136 277.35 258.145 297.699C253.097 307.977 241.4 313.997 229.944 314.111C218.499 314.226 207.454 309.121 198.584 301.888C188.123 293.35 179.723 281.561 167.053 276.88C146.44 269.246 124.763 283.267 103.212 287.581C82.9084 291.644 60.0639 285.933 46.5358 270.254C33.0077 254.574 31.4969 228.708 45.563 213.509C53.1625 205.303 64.7336 200.026 68.3502 189.44C72.8367 176.312 62.7993 163.23 55.2913 151.556C49.0652 141.874 44.1552 130.932 43.8805 119.43C43.5944 107.927 48.6875 95.8185 58.6104 89.9929C82.8397 75.7895 115.493 103.109 138.326 83.2975C155.963 67.9954 155.367 40.1838 184.781 37.9177H184.804Z" stroke="#1700FF" stroke-width="0.709597" stroke-linecap="round" stroke-linejoin="round"/>
<path d="M183.534 47.2682C201.96 45.849 220.181 60.5331 222.71 78.8453C224.015 88.3219 221.6 98.0731 223.386 107.47C225.904 120.666 236.227 130.932 247.031 138.932C257.824 146.921 269.807 153.742 278.299 164.157C286.792 174.561 290.992 190.08 283.885 201.48C277.006 212.513 261.967 216.347 255.215 227.449C244.239 245.509 261.235 270.517 251.93 289.493C247.226 299.072 236.319 304.692 225.64 304.795C214.962 304.898 204.673 300.137 196.398 293.396C186.635 285.441 178.818 274.454 167.007 270.082C147.791 262.963 127.579 276.045 107.481 280.062C88.5507 283.85 67.2513 278.528 54.6388 263.901C42.0263 249.286 40.6185 225.16 53.7346 211.002C60.8192 203.357 71.6005 198.424 74.9768 188.57C79.1657 176.323 69.8036 164.134 62.7992 153.25C56.9965 144.22 52.4184 134.022 52.1552 123.298C51.892 112.574 56.6302 101.278 65.8893 95.8528C88.4706 82.6108 118.926 108.076 140.214 89.6037C156.661 75.3317 156.1 49.4085 183.534 47.2911V47.2682Z" stroke="#1700FF" stroke-width="0.675262" stroke-linecap="round" stroke-linejoin="round"/>
<path d="M182.252 56.6075C199.34 55.2913 216.244 68.911 218.579 85.8956C219.792 94.6855 217.549 103.727 219.208 112.448C221.543 124.683 231.123 134.205 241.137 141.622C251.152 149.038 262.253 155.356 270.139 165.016C278.025 174.664 281.916 189.05 275.324 199.626C268.937 209.858 254.997 213.417 248.737 223.718C238.55 240.462 254.322 263.661 245.692 281.252C241.332 290.134 231.214 295.353 221.314 295.444C211.414 295.536 201.869 291.129 194.201 284.869C185.148 277.487 177.891 267.301 166.938 263.249C149.107 256.657 130.371 268.777 111.739 272.497C94.1817 276.01 74.4275 271.066 62.7306 257.515C51.0336 243.953 49.7289 221.589 61.8951 208.45C68.4646 201.354 78.4676 196.787 81.5921 187.643C85.472 176.289 76.7852 164.981 70.2958 154.887C64.9166 146.52 60.6704 137.055 60.4301 127.109C60.1897 117.164 64.5847 106.691 73.1685 101.656C94.1131 89.3749 122.348 112.998 142.102 95.8643C157.359 82.6337 156.832 58.5875 182.275 56.6304L182.252 56.6075Z" stroke="#1700FF" stroke-width="0.640927" stroke-linecap="round" stroke-linejoin="round"/>
<path d="M180.981 65.9468C196.73 64.7337 212.307 77.2889 214.47 92.9344C215.591 101.038 213.52 109.37 215.054 117.404C217.205 128.689 226.029 137.456 235.266 144.3C244.49 151.133 254.734 156.97 261.99 165.863C269.258 174.756 272.84 188.02 266.763 197.76C260.88 207.191 248.027 210.464 242.247 219.964C232.862 235.403 247.397 256.783 239.432 273C235.414 281.195 226.087 285.991 216.965 286.082C207.843 286.174 199.042 282.099 191.969 276.331C183.625 269.533 176.941 260.136 166.847 256.394C150.411 250.316 133.141 261.487 115.962 264.92C99.7783 268.159 81.5691 263.604 70.7878 251.106C60.0065 238.608 58.8048 217.995 70.0095 205.886C76.064 199.351 85.2888 195.139 88.1729 186.704C91.7553 176.232 83.7437 165.817 77.7579 156.512C72.7907 148.798 68.8879 140.077 68.659 130.898C68.4301 121.73 72.4817 112.071 80.4017 107.435C99.7096 96.1162 125.736 117.885 143.945 102.102C158.011 89.9015 157.53 67.7437 180.97 65.9354L180.981 65.9468Z" stroke="#1700FF" stroke-width="0.606591" stroke-linecap="round" stroke-linejoin="round"/>
<path d="M179.711 75.2861C194.121 74.176 208.381 85.6669 210.35 99.9847C211.368 107.401 209.48 115.024 210.876 122.383C212.845 132.706 220.925 140.741 229.372 146.99C237.818 153.239 247.18 158.584 253.83 166.721C260.479 174.859 263.764 187.002 258.202 195.918C252.823 204.547 241.057 207.546 235.769 216.233C227.174 230.356 240.485 249.927 233.194 264.772C229.52 272.268 220.982 276.663 212.627 276.743C204.272 276.823 196.227 273.104 189.76 267.827C182.126 261.601 176.003 253.006 166.767 249.584C151.728 244.022 135.922 254.242 120.208 257.389C105.398 260.354 88.734 256.188 78.8683 244.754C69.0026 233.32 67.9039 214.447 78.1587 203.368C83.6982 197.383 92.1332 193.537 94.777 185.812C98.0503 176.232 90.7255 166.698 85.2547 158.183C80.711 151.121 77.1287 143.144 76.9341 134.744C76.7281 126.354 80.4363 117.519 87.6811 113.272C105.352 102.915 129.17 122.841 145.822 108.385C158.687 97.2264 158.252 76.9457 179.711 75.2861Z" fill="#CED0FF" stroke="#1700FF" stroke-width="0.572256" stroke-linecap="round" stroke-linejoin="round"/>
<path d="M178.441 84.6254C191.511 83.6183 204.444 94.0448 206.241 107.035C207.168 113.753 205.451 120.678 206.722 127.35C208.507 136.712 215.832 144.003 223.5 149.679C231.168 155.356 239.661 160.198 245.692 167.58C251.724 174.962 254.7 185.972 249.652 194.064C244.765 201.892 234.098 204.616 229.303 212.502C221.509 225.32 233.583 243.072 226.968 256.531C223.626 263.33 215.889 267.312 208.312 267.393C200.736 267.461 193.434 264.085 187.562 259.301C180.638 253.647 175.087 245.853 166.698 242.751C153.055 237.704 138.715 246.986 124.454 249.836C111.018 252.525 95.8985 248.748 86.9484 238.368C77.9984 227.987 76.9912 210.877 86.3075 200.828C91.3319 195.403 98.9887 191.901 101.381 184.908C104.356 176.221 97.7068 167.568 92.7397 159.843C88.6194 153.433 85.369 146.2 85.1859 138.578C85.0028 130.967 88.3676 122.955 94.9371 119.098C110.96 109.702 132.569 127.774 147.688 114.669C159.362 104.54 158.961 86.1476 178.429 84.6483L178.441 84.6254Z" fill="#1700FF" stroke="#1700FF" stroke-width="0.537921" stroke-linecap="round" stroke-linejoin="round"/>
<path d="M177.17 93.9647C188.913 93.0606 200.518 102.423 202.132 114.085C202.968 120.117 201.423 126.332 202.567 132.317C204.169 140.729 210.75 147.265 217.629 152.358C224.507 157.451 232.141 161.8 237.555 168.427C242.968 175.053 245.647 184.942 241.114 192.198C236.731 199.225 227.151 201.675 222.848 208.748C215.855 220.25 226.682 236.193 220.753 248.279C217.755 254.379 210.808 257.962 204.009 258.03C197.211 258.099 190.653 255.066 185.377 250.763C179.162 245.693 174.172 238.688 166.652 235.907C154.406 231.375 141.53 239.707 128.735 242.259C116.672 244.674 103.098 241.275 95.0631 231.97C87.0287 222.654 86.1245 207.283 94.4909 198.264C99.0003 193.388 105.879 190.253 108.03 183.969C110.697 176.164 104.734 168.404 100.271 161.468C96.5739 155.711 93.6554 149.222 93.4837 142.378C93.312 135.545 96.3336 128.346 102.239 124.889C116.626 116.454 136.025 132.684 149.599 120.907C160.083 111.819 159.717 95.3038 177.193 93.9533L177.17 93.9647Z" stroke="#1700FF" stroke-width="0.503585" stroke-linecap="round" stroke-linejoin="round"/>
<path d="M175.9 103.315C186.304 102.514 196.593 110.811 198.012 121.135C198.745 126.48 197.383 131.996 198.401 137.295C199.82 144.746 205.657 150.537 211.746 155.058C217.835 159.579 224.599 163.425 229.395 169.296C234.19 175.167 236.559 183.934 232.542 190.366C228.662 196.592 220.17 198.756 216.359 205.028C210.155 215.225 219.758 229.337 214.505 240.05C211.849 245.463 205.692 248.633 199.66 248.691C193.629 248.748 187.826 246.058 183.156 242.258C177.651 237.761 173.233 231.557 166.561 229.097C155.711 225.079 144.3 232.461 132.958 234.728C122.268 236.868 110.251 233.858 103.132 225.606C96.0132 217.354 95.2121 203.734 102.617 195.746C106.611 191.431 112.7 188.65 114.612 183.076C116.981 176.163 111.693 169.284 107.733 163.138C104.46 158.045 101.873 152.288 101.724 146.223C101.576 140.168 104.254 133.793 109.484 130.726C122.234 123.252 139.425 137.627 151.442 127.201C160.724 119.143 160.415 104.505 175.9 103.315Z" stroke="#1700FF" stroke-width="0.46925" stroke-linecap="round" stroke-linejoin="round"/>
<path d="M174.63 112.654C183.694 111.956 192.656 119.178 193.903 128.185C194.544 132.843 193.354 137.65 194.235 142.263C195.471 148.752 200.553 153.811 205.863 157.736C211.174 161.662 217.068 165.027 221.246 170.143C225.423 175.259 227.495 182.893 223.992 188.501C220.605 193.926 213.211 195.814 209.881 201.285C204.478 210.167 212.845 222.47 208.267 231.809C205.955 236.525 200.587 239.283 195.334 239.34C190.08 239.386 185.022 237.051 180.947 233.732C176.152 229.818 172.295 224.416 166.492 222.264C157.038 218.762 147.093 225.194 137.204 227.174C127.888 229.04 117.415 226.419 111.212 219.231C105.009 212.044 104.311 200.175 110.766 193.205C114.245 189.439 119.556 187.024 121.215 182.172C123.275 176.152 118.663 170.143 115.229 164.798C112.368 160.357 110.125 155.333 109.988 150.057C109.862 144.781 112.185 139.23 116.74 136.552C127.853 130.039 142.835 142.572 153.307 133.484C161.399 126.468 161.124 113.707 174.618 112.666L174.63 112.654Z" stroke="#1700FF" stroke-width="0.434915" stroke-linecap="round" stroke-linejoin="round"/>
<path d="M173.347 121.993C181.073 121.398 188.718 127.556 189.771 135.235C190.321 139.207 189.302 143.304 190.057 147.241C191.11 152.781 195.448 157.084 199.969 160.438C204.501 163.791 209.514 166.652 213.085 171.013C216.644 175.373 218.407 181.886 215.431 186.67C212.547 191.294 206.241 192.907 203.402 197.566C198.801 205.142 205.932 215.626 202.017 223.592C200.049 227.609 195.471 229.967 190.996 230.012C186.521 230.058 182.206 228.055 178.738 225.228C174.641 221.886 171.367 217.285 166.412 215.454C158.354 212.467 149.874 217.949 141.45 219.643C133.507 221.234 124.58 219.002 119.292 212.868C114.005 206.733 113.409 196.616 118.914 190.676C121.89 187.471 126.411 185.399 127.819 181.268C129.57 176.129 125.644 171.013 122.714 166.458C120.276 162.669 118.365 158.389 118.251 153.891C118.136 149.393 120.128 144.655 124.008 142.377C133.484 136.826 146.245 147.505 155.184 139.756C162.085 133.77 161.845 122.898 173.347 122.016V121.993Z" stroke="#1700FF" stroke-width="0.389134" stroke-linecap="round" stroke-linejoin="round"/>
<path d="M172.078 131.332C178.464 130.84 184.793 135.933 185.663 142.285C186.121 145.57 185.274 148.958 185.903 152.208C186.773 156.786 190.355 160.346 194.098 163.115C197.841 165.885 201.995 168.254 204.948 171.859C207.901 175.465 209.354 180.855 206.882 184.804C204.49 188.626 199.283 189.966 196.936 193.811C193.125 200.072 199.031 208.747 195.792 215.328C194.155 218.647 190.378 220.604 186.67 220.638C182.973 220.673 179.402 219.025 176.53 216.69C173.142 213.932 170.429 210.12 166.332 208.598C159.671 206.126 152.655 210.67 145.685 212.055C139.116 213.371 131.734 211.517 127.361 206.447C122.989 201.376 122.497 193.01 127.052 188.1C129.513 185.445 133.256 183.739 134.423 180.317C135.877 176.071 132.626 171.836 130.2 168.071C128.186 164.935 126.595 161.399 126.503 157.679C126.412 153.959 128.06 150.045 131.264 148.157C139.093 143.567 149.657 152.403 157.039 145.993C162.738 141.049 162.544 132.053 172.066 131.321L172.078 131.332Z" stroke="#1700FF" stroke-width="0.354799" stroke-linecap="round" stroke-linejoin="round"/>
<path d="M214.225 113.033C220.611 112.541 226.941 117.634 227.81 123.986C228.268 127.271 227.421 130.658 228.051 133.909C228.921 138.487 232.503 142.046 236.245 144.816C239.988 147.586 244.143 149.955 247.095 153.56C250.048 157.165 251.502 162.556 249.03 166.504C246.638 170.327 241.43 171.666 239.084 175.512C235.273 181.772 241.178 190.448 237.939 197.029C236.303 200.348 232.526 202.305 228.818 202.339C225.121 202.373 221.55 200.725 218.677 198.391C215.289 195.632 212.577 191.821 208.48 190.299C201.819 187.827 194.803 192.37 187.833 193.755C181.263 195.072 173.881 193.217 169.509 188.147C165.137 183.077 164.645 174.711 169.2 169.801C171.661 167.145 175.403 165.44 176.571 162.018C178.024 157.772 174.774 153.537 172.347 149.772C170.333 146.636 168.742 143.099 168.651 139.38C168.559 135.66 170.207 131.746 173.412 129.857C181.24 125.268 191.804 134.103 199.186 127.694C204.886 122.75 204.691 113.754 214.214 113.021L214.225 113.033Z" stroke="#1700FF" stroke-width="0.354799" stroke-linecap="round" stroke-linejoin="round"/>
<path d="M170.807 140.672C175.854 140.282 180.856 144.311 181.554 149.335C181.909 151.934 181.245 154.612 181.737 157.187C182.424 160.803 185.262 163.619 188.215 165.816C191.168 168.014 194.464 169.879 196.787 172.729C199.122 175.579 200.267 179.837 198.321 182.961C196.432 185.983 192.312 187.036 190.458 190.08C187.448 195.036 192.106 201.891 189.554 207.099C188.261 209.731 185.274 211.265 182.344 211.299C179.414 211.322 176.598 210.017 174.321 208.175C171.642 205.989 169.502 202.979 166.263 201.777C160.987 199.831 155.448 203.414 149.942 204.512C144.746 205.554 138.909 204.089 135.453 200.083C131.996 196.077 131.607 189.462 135.201 185.571C137.147 183.476 140.1 182.126 141.027 179.413C142.171 176.06 139.607 172.706 137.685 169.731C136.094 167.259 134.835 164.454 134.766 161.513C134.698 158.572 135.991 155.47 138.532 153.982C144.723 150.354 153.078 157.336 158.915 152.265C163.425 148.351 163.276 141.244 170.795 140.66L170.807 140.672Z" stroke="#1700FF" stroke-width="0.320463" stroke-linecap="round" stroke-linejoin="round"/>
<path d="M169.537 150.011C173.256 149.725 176.93 152.689 177.434 156.374C177.697 158.286 177.205 160.254 177.571 162.143C178.075 164.809 180.158 166.869 182.344 168.483C184.53 170.097 186.933 171.47 188.65 173.565C190.367 175.659 191.214 178.795 189.771 181.096C188.387 183.316 185.354 184.094 183.992 186.338C181.783 189.977 185.205 195.024 183.328 198.847C182.378 200.781 180.18 201.914 178.029 201.937C175.877 201.96 173.806 200.999 172.135 199.637C170.166 198.035 168.587 195.814 166.206 194.933C162.326 193.502 158.252 196.135 154.2 196.947C150.377 197.714 146.085 196.638 143.545 193.685C141.004 190.733 140.718 185.868 143.362 183.019C144.792 181.473 146.967 180.478 147.642 178.498C148.489 176.026 146.601 173.565 145.181 171.379C144.014 169.559 143.087 167.499 143.03 165.336C142.972 163.173 143.934 160.895 145.799 159.796C150.355 157.13 156.489 162.257 160.792 158.537C164.112 155.665 163.997 150.434 169.525 150.011H169.537Z" fill="white" stroke="#1700FF" stroke-width="0.286128" stroke-linecap="round" stroke-linejoin="round"/>
</g>
<defs>
<clipPath id="clip0_25_793">
<rect width="332" height="351.949" fill="white"/>
</clipPath>
</defs>
</svg>
